<svg width="1024" height="1024" viewBox="0 0 1024 1024" fill="none" xmlns="http://www.w3.org/2000/svg">
<g clip-path="url(#clip0_1_2)">
<rect width="1024" height="1024" fill="white"/>
<rect x="3" width="1021" height="1024" fill="white"/>
<g filter="url(#filter0_d_1_2)">
<rect width="1024" height="294" fill="url(#paint0_radial_1_2)"/>
</g>
<line x1="1024" y1="539" y2="539" stroke="#CBCBCF" stroke-width="8"/>
<line x1="1024" y1="774" y2="774" stroke="#CBCBCF" stroke-width="8"/>
<circle cx="13.4785" cy="348.478" r="13.4785" fill="#CACACA"/>
<circle cx="60.3602" cy="348.478" r="13.4785" fill="#CACACA"/>
<circle cx="107.242" cy="348.478" r="13.4785" fill="#CACACA"/>
<circle cx="154.124" cy="348.478" r="13.4785" fill="#CACACA"/>
<circle cx="201.005" cy="348.478" r="13.4785" fill="#CACACA"/>
<circle cx="247.887" cy="348.478" r="13.4785" fill="#CACACA"/>
<circle cx="294.769" cy="348.478" r="13.4785" fill="#CACACA"/>
<circle cx="341.651" cy="348.478" r="13.4785" fill="#CACACA"/>
<circle cx="388.532" cy="348.478" r="13.4785" fill="#CACACA"/>
<circle cx="435.414" cy="348.478" r="13.4785" fill="#CACACA"/>
<circle cx="482.296" cy="348.478" r="13.4785" fill="#CACACA"/>
<circle cx="529.177" cy="348.478" r="13.4785" fill="#CACACA"/>
<circle cx="576.059" cy="348.478" r="13.4785" fill="#CACACA"/>
<circle cx="622.941" cy="348.478" r="13.4785" fill="#CACACA"/>
<circle cx="669.823" cy="348.478" r="13.4785" fill="#CACACA"/>
<circle cx="716.704" cy="348.478" r="13.4785" fill="#CACACA"/>
<circle cx="763.586" cy="348.478" r="13.4785" fill="#CACACA"/>
<circle cx="810.468" cy="348.478" r="13.4785" fill="#CACACA"/>
<circle cx="857.35" cy="348.478" r="13.4785" fill="#CACACA"/>
<circle cx="904.231" cy="348.478" r="13.4785" fill="#CACACA"/>
<circle cx="951.113" cy="348.478" r="13.4785" fill="#CACACA"/>
<circle cx="997.995" cy="348.478" r="13.4785" fill="#CACACA"/>
</g>
<defs>
<filter id="filter0_d_1_2" x="-29.8" y="-13.8" width="1083.6" height="353.6" filterUnits="userSpaceOnUse" color-interpolation-filters="sRGB">
<feFlood flood-opacity="0" result="BackgroundImageFix"/>
<feColorMatrix in="SourceAlpha" type="matrix" values="0 0 0 0 0 0 0 0 0 0 0 0 0 0 0 0 0 0 127 0" result="hardAlpha"/>
<feOffset dy="16"/>
<feGaussianBlur stdDeviation="14.9"/>
<feComposite in2="hardAlpha" operator="out"/>
<feColorMatrix type="matrix" values="0 0 0 0 0 0 0 0 0 0 0 0 0 0 0 0 0 0 0.57 0"/>
<feBlend mode="normal" in2="BackgroundImageFix" result="effect1_dropShadow_1_2"/>
<feBlend mode="normal" in="SourceGraphic" in2="effect1_dropShadow_1_2" result="shape"/>
</filter>
<radialGradient id="paint0_radial_1_2" cx="0" cy="0" r="1" gradientUnits="userSpaceOnUse" gradientTransform="translate(183 -261.5) rotate(68.2824) scale(889.11 741.048)">
<stop stop-color="#FFF2C0"/>
<stop offset="1" stop-color="#FFC600"/>
</radialGradient>
<clipPath id="clip0_1_2">
<rect width="1024" height="1024" fill="white"/>
</clipPath>
</defs>
</svg>
